<?xml version="1.0" standalone="no"?>
<!DOCTYPE svg PUBLIC "-//W3C//DTD SVG 20010904//EN"
 "http://www.w3.org/TR/2001/REC-SVG-20010904/DTD/svg10.dtd">
<svg version="1.0" xmlns="http://www.w3.org/2000/svg"
 width="48.000000pt" height="48.000000pt" viewBox="0 0 48.000000 48.000000"
 preserveAspectRatio="xMidYMid meet">

<g transform="translate(0.000000,48.000000) scale(0.100000,-0.100000)"
fill="#000000" stroke="none">
<path d="M179 391 c-22 -23 -29 -39 -29 -70 0 -22 5 -43 10 -46 18 -11 11 -22
-29 -48 -40 -26 -81 -95 -81 -135 0 -39 25 -23 43 28 54 151 252 144 298 -10
13 -43 39 -55 39 -18 0 40 -41 109 -81 135 -40 26 -47 37 -29 48 6 3 10 26 10
50 0 36 -5 48 -31 69 -41 35 -83 34 -120 -3z m86 -13 c30 -14 42 -50 27 -83
-21 -45 -92 -41 -107 6 -13 40 7 73 52 88 1 1 14 -4 28 -11z"/>
</g>
</svg>
